<svg width="57" height="57" viewBox="0 0 57 57" fill="none" xmlns="http://www.w3.org/2000/svg">
<g clip-path="url(#clip0_1_2389)">
<path d="M56.4079 43.8365C54.3773 44.3531 53.1215 43.8588 51.9949 42.1666C49.4655 38.377 46.6734 34.7611 43.9793 31.0783C43.6319 30.6019 43.2712 30.1343 42.8214 29.542C39.633 33.8437 36.449 37.9406 33.461 42.2022C32.3922 43.7252 31.27 44.3887 29.275 43.8499L41.2629 27.7608L30.1033 13.2302C32.0226 12.8562 33.3496 13.0476 34.5253 14.7665C37.1214 18.5606 39.9848 22.1721 42.8393 25.9929C45.7115 22.1855 48.5393 18.5695 51.2111 14.8111C52.2843 13.2881 53.4377 12.7092 55.3659 13.2703C53.9053 15.2074 52.4758 17.1133 51.0375 19.0059C49.0959 21.5576 47.19 24.1404 45.1771 26.6386C44.4602 27.5292 44.576 28.1081 45.2172 28.9497C48.94 33.8437 52.6183 38.7867 56.4079 43.8365ZM0.592461 27.4936C0.913086 25.886 1.12684 24.2472 1.57215 22.6708C4.24402 13.1278 15.1987 9.16006 22.7245 15.0738C27.1331 18.5428 28.2286 23.4323 28.0104 28.9453H3.16191C2.78785 38.8357 9.9084 44.8073 18.9839 41.7614C22.1679 40.6926 24.0426 38.1989 24.9822 35.0817C25.4587 33.5187 26.2469 33.2737 27.7164 33.719C26.9639 37.62 25.2583 40.8797 21.6958 42.9192C16.3521 45.974 8.72387 44.9855 4.7116 40.7416C2.34254 38.2479 1.33613 35.144 0.89082 31.7908C0.824023 31.2565 0.685977 30.731 0.579102 30.2011C0.588008 29.2986 0.592461 28.3961 0.592461 27.4936ZM3.20645 26.8301H25.6636C25.5166 19.6783 21.0635 14.5973 14.9761 14.5528C8.29637 14.4994 3.4959 19.4601 3.20645 26.8301Z" fill="black"/>
</g>
<defs>
<clipPath id="clip0_1_2389">
<rect width="57" height="57" fill="white"/>
</clipPath>
</defs>
</svg>
