<svg width="48" height="48" viewBox="0 0 48 48" fill="none" xmlns="http://www.w3.org/2000/svg">
<g clip-path="url(#clip0_1_235)">
<g clip-path="url(#clip1_1_235)">
<g clip-path="url(#clip2_1_235)">
<path d="M6.65625 43.125L2.8125 0H45.0938L41.25 43.125L23.9062 48" fill="#E34F26"/>
<path d="M24 44.25L37.9688 40.4062L41.25 3.46875H24" fill="#EF652A"/>
<path d="M24 19.5H16.9688L16.5 14.0625H24V8.8125H10.6875L12.0938 24.8438H24V19.5ZM23.9062 33.2812L18 31.6875L17.625 27.4688H12.375L13.0312 35.8125L23.9062 38.8125V33.2812Z" fill="#EBEBEB"/>
<path d="M23.9062 19.5V24.8438H30.4688L29.8125 31.6875L23.9062 33.2812V38.8125L34.7812 35.8125L36.2812 19.5H23.9062ZM23.9062 8.8125V14.0625H36.75L37.2188 8.8125H23.9062Z" fill="white"/>
</g>
</g>
</g>
<defs>
<clipPath id="clip0_1_235">
<rect width="48" height="48" fill="white"/>
</clipPath>
<clipPath id="clip1_1_235">
<rect width="48" height="48" fill="white"/>
</clipPath>
<clipPath id="clip2_1_235">
<rect width="48" height="48" fill="white"/>
</clipPath>
</defs>
</svg>
