<svg width="48" height="48" viewBox="0 0 48 48" fill="none" xmlns="http://www.w3.org/2000/svg">
<g clip-path="url(#clip0_1_254)">
<g clip-path="url(#clip1_1_254)">
<g clip-path="url(#clip2_1_254)">
<path d="M40.8 0H7.2C3.22355 0 0 3.22355 0 7.2V40.8C0 44.7765 3.22355 48 7.2 48H40.8C44.7765 48 48 44.7765 48 40.8V7.2C48 3.22355 44.7765 0 40.8 0Z" fill="#F7DF1E"/>
<path d="M30.375 34.6875C31.3125 36.2812 32.625 37.4062 34.7812 37.4062C36.6562 37.4062 37.875 36.4688 37.875 35.1562C37.875 33.6562 36.6562 33.0938 34.5938 32.1562L33.4688 31.6875C30.1875 30.2812 28.0312 28.5938 28.0312 24.9375C28.0312 21.5625 30.5625 18.9375 34.5938 18.9375C37.5 18.9375 39.5625 19.9688 40.9688 22.5938L37.5 24.8438C36.75 23.4375 35.9062 22.875 34.5938 22.875C33.2812 22.875 32.4375 23.7188 32.4375 24.8438C32.4375 26.1562 33.2812 26.7188 35.25 27.5625L36.375 28.0312C40.2188 29.7188 42.375 31.3125 42.375 35.1562C42.375 39.1875 39.1875 41.4375 34.875 41.4375C30.6562 41.4375 27.9375 39.4688 26.625 36.8438L30.375 34.6875ZM14.4375 35.0625C15.1875 36.2812 15.75 37.4062 17.3438 37.4062C18.8438 37.4062 19.7812 36.8438 19.7812 34.5938V19.0312H24.2812V34.4062C24.2812 39.0938 21.5625 41.1562 17.5312 41.1562C13.875 41.1562 11.8125 39.2812 10.7812 37.0312L14.4375 35.0625Z" fill="black"/>
</g>
</g>
</g>
<defs>
<clipPath id="clip0_1_254">
<rect width="48" height="48" fill="white"/>
</clipPath>
<clipPath id="clip1_1_254">
<rect width="48" height="48" fill="white"/>
</clipPath>
<clipPath id="clip2_1_254">
<rect width="48" height="48" fill="white"/>
</clipPath>
</defs>
</svg>
