<svg width="72" height="72" viewBox="0 0 72 72" fill="none" xmlns="http://www.w3.org/2000/svg">
<path fill-rule="evenodd" clip-rule="evenodd" d="M49.5218 24.0815C50.4246 26.6932 51.0748 29.3595 51.2886 32.123C51.5541 35.5515 51.4326 38.9557 50.7098 42.3279C50.6901 42.4207 50.6485 42.5079 50.6175 42.5979C50.3908 42.5985 50.1597 42.5704 49.938 42.6047C48.0655 42.8989 46.1946 43.2037 44.3237 43.5069C42.3898 43.8202 40.4532 44.1212 38.5227 44.4559C37.8387 44.574 36.9921 44.4328 36.7159 45.3789C36.708 45.4048 36.6293 45.4093 36.5837 45.4239L36.6771 39.7702L36.582 26.1285L37.4832 25.9738C38.9569 25.7325 40.4307 25.4878 41.9055 25.2532C43.6656 24.9737 45.4273 24.702 47.1885 24.4292C47.9653 24.3082 48.7433 24.1974 49.5218 24.0815Z" fill="#439934"/>
<path fill-rule="evenodd" clip-rule="evenodd" d="M34.7226 61.9054C33.7719 61.088 32.7881 60.3067 31.8769 59.4472C26.9736 54.8224 23.3871 49.379 21.6208 42.8164C21.1342 41.0102 20.8097 39.1747 20.7056 37.3084C20.6325 36.0022 20.5267 34.6843 20.619 33.3849C20.8648 29.9289 21.3643 26.5061 22.3779 23.1772L22.4336 23.0996C22.5321 23.2307 22.6738 23.3465 22.7239 23.4945C23.7133 26.4082 24.6954 29.3242 25.6725 32.2419C28.7426 41.4107 31.8088 50.5817 34.884 59.7482C34.9442 59.927 35.1 60.0739 35.2119 60.2353L34.7226 61.9054Z" fill="#45A538"/>
<path fill-rule="evenodd" clip-rule="evenodd" d="M49.5218 24.0815C48.7433 24.1974 47.9648 24.3082 47.188 24.428C45.4268 24.7008 43.6651 24.9725 41.905 25.2521C40.4301 25.4866 38.9564 25.7313 37.4826 25.9726L36.5815 26.1273L36.5747 25.5395C36.5449 25.0563 36.4937 24.5737 36.4881 24.0905C36.4493 21.0091 36.4251 17.9278 36.3869 14.8464C36.3632 12.9176 36.3278 10.9893 36.2884 9.06107C36.2642 7.86295 36.2384 6.66426 36.1844 5.46782C36.1551 4.82489 36.0516 4.18532 36.0094 3.54239C35.9858 3.17282 36.0184 2.80045 36.0257 2.4292C36.4853 3.31964 36.9347 4.21682 37.4072 5.10051C38.1537 6.49776 39.3428 7.52714 40.4132 8.65045C44.6449 13.0897 47.6492 18.2512 49.5218 24.0815Z" fill="#46A037"/>
<path fill-rule="evenodd" clip-rule="evenodd" d="M36.5823 45.4235C36.6279 45.4089 36.7072 45.4044 36.7145 45.3785C36.9907 44.4324 37.8373 44.5735 38.5213 44.4554C40.4518 44.1213 42.3884 43.8198 44.3223 43.5065C46.1932 43.2033 48.0641 42.8984 49.9366 42.6042C50.1583 42.5694 50.3894 42.598 50.6161 42.5975C50.2663 43.8462 49.9906 45.122 49.5468 46.3364C49.0428 47.714 48.4331 49.0584 47.7856 50.3763C46.8164 52.3421 45.6168 54.1856 44.2121 55.868C43.1326 57.1662 41.9294 58.366 40.7234 59.5512C40.0569 60.2065 39.2711 60.7404 38.5398 61.3293L38.3503 61.1999L37.6674 60.616L36.9609 59.0675C36.4783 57.261 36.215 55.403 36.1768 53.5336L36.1897 53.218L36.2859 51.8534C36.3179 51.3877 36.3607 50.9225 36.3804 50.4556C36.4529 48.7782 36.5159 47.1009 36.5823 45.4235Z" fill="#409433"/>
<path fill-rule="evenodd" clip-rule="evenodd" d="M36.583 45.4235C36.5167 47.1009 36.4537 48.7783 36.3822 50.4562C36.3625 50.9231 36.3198 51.3883 36.2877 51.854L35.8574 52.0166C34.9017 49.203 33.9455 46.4192 33.01 43.628C31.4632 39.0105 29.9349 34.3856 28.3902 29.7669C27.1427 26.0389 25.8864 22.3139 24.6215 18.5917C24.5624 18.4173 24.3925 18.2812 24.2744 18.1271L27.0284 13.0635C27.1229 13.2277 27.2478 13.3813 27.3074 13.5579C28.5829 17.3279 29.8519 21.1 31.1144 24.8743C32.7547 29.7849 34.3848 34.6995 36.0239 39.6107C36.0892 39.807 36.1972 39.9881 36.3001 40.208L36.677 39.7693L36.583 45.4235Z" fill="#4FAA41"/>
<path fill-rule="evenodd" clip-rule="evenodd" d="M24.2751 18.1279C24.3932 18.2821 24.5625 18.4182 24.6221 18.5926C25.8871 22.3147 27.1433 26.0398 28.3909 29.7677C29.9355 34.3864 31.4638 39.0113 33.0107 43.6289C33.9456 46.4194 34.9018 49.2038 35.8581 52.0174L36.2884 51.8549L36.1922 53.2195L36.105 53.5339C35.9554 55.0279 35.8294 56.5253 35.6471 58.0159C35.5554 58.7629 35.3608 59.4964 35.2129 60.2361C35.1015 60.0747 34.9451 59.9279 34.8849 59.749C31.8098 50.5819 28.7436 41.4115 25.6734 32.2427C24.6967 29.3249 23.7138 26.409 22.7248 23.4953C22.6748 23.3474 22.5336 23.2315 22.4346 23.1004L24.2751 18.1279Z" fill="#4AA73C"/>
<path fill-rule="evenodd" clip-rule="evenodd" d="M36.6759 39.7701L36.299 40.2089C36.1961 39.9889 36.0881 39.8072 36.0228 39.6115C34.3843 34.7003 32.7536 29.7857 31.1133 24.8751C29.8508 21.1008 28.5818 17.3287 27.3063 13.5587C27.2473 13.3821 27.1224 13.228 27.0273 13.0643L30.4333 8.58398C30.5407 8.72742 30.6937 8.85511 30.7494 9.01655C31.695 11.7846 32.6321 14.556 33.5636 17.3292C34.4338 19.9189 35.291 22.5126 36.1713 25.099C36.2304 25.2722 36.4357 25.3949 36.573 25.5411L36.5797 26.1289C36.6123 30.675 36.6444 35.2229 36.6759 39.7701Z" fill="#57AE47"/>
<path fill-rule="evenodd" clip-rule="evenodd" d="M36.5743 25.5398C36.437 25.3936 36.2317 25.271 36.1726 25.0977C35.2923 22.5113 34.4351 19.9176 33.5649 17.3279C32.6334 14.5548 31.6963 11.7839 30.7507 9.01527C30.695 8.85384 30.542 8.72615 30.4346 8.58271C31.5421 7.49821 32.6154 6.3749 33.7674 5.34046C34.7917 4.42134 35.6152 3.43584 35.6529 1.98346C35.6546 1.92327 35.6861 1.86309 35.7344 1.69434L36.0264 2.42896C36.0191 2.80077 35.9859 3.17259 36.0101 3.54215C36.0523 4.18509 36.1558 4.82465 36.185 5.46759C36.239 6.66402 36.2649 7.86271 36.2891 9.06084C36.3279 10.9891 36.3633 12.9173 36.3875 14.8461C36.4252 17.9275 36.4499 21.0089 36.4888 24.0903C36.4933 24.5746 36.5439 25.0566 36.5743 25.5398Z" fill="#60B24F"/>
<path fill-rule="evenodd" clip-rule="evenodd" d="M35.2111 60.2352C35.359 59.4955 35.5536 58.7614 35.6453 58.015C35.8281 56.5249 35.9536 55.027 36.1032 53.533L36.1403 53.5273L36.1774 53.5335C36.2157 55.4029 36.479 57.2609 36.9616 59.0674C36.8626 59.1979 36.7225 59.3143 36.6702 59.4617C36.2612 60.6148 35.8759 61.777 35.4647 62.9301C35.4085 63.0876 35.2521 63.2102 35.1419 63.3486L34.7217 61.9052L35.2111 60.2352Z" fill="#A9AA88"/>
<path fill-rule="evenodd" clip-rule="evenodd" d="M35.1426 63.3495C35.2528 63.2112 35.4098 63.0885 35.4655 62.931C35.8766 61.7779 36.2625 60.6164 36.6709 59.4627C36.7232 59.3153 36.8627 59.1989 36.9623 59.0684L37.6682 60.6175C37.5287 60.8155 37.3363 60.9938 37.2587 61.2143L35.9065 65.185C35.8508 65.3442 35.6606 65.4567 35.5335 65.5911L35.1426 63.3495Z" fill="#B6B598"/>
<path fill-rule="evenodd" clip-rule="evenodd" d="M35.5332 65.5903C35.6609 65.4565 35.8505 65.3434 35.9061 65.1842L37.2584 61.2135C37.3355 60.9936 37.5284 60.8147 37.6679 60.6167L38.3513 61.2C38.0211 61.5263 37.8378 61.9031 37.948 62.3796L37.7405 63.0591C37.646 63.1755 37.5093 63.2768 37.4626 63.4101C36.9906 64.7618 36.5401 66.1208 36.0648 67.4724C36.0046 67.644 35.8375 67.7784 35.7194 67.9292C35.6581 67.149 35.5956 66.3705 35.5332 65.5903Z" fill="#C2C1A7"/>
<path fill-rule="evenodd" clip-rule="evenodd" d="M35.7201 67.9292C35.8376 67.7779 36.0047 67.6435 36.0654 67.4725C36.5408 66.1213 36.9913 64.7623 37.4633 63.4101C37.5099 63.2773 37.6461 63.1755 37.7411 63.0591L37.4548 66.1781C37.3783 66.2665 37.2675 66.3435 37.2309 66.4465C36.9075 67.3543 36.6026 68.269 36.2781 69.1768C36.2111 69.3641 36.0829 69.5295 35.9828 69.7045C35.8939 69.588 35.7347 69.4755 35.7274 69.354C35.6987 68.881 35.7184 68.4045 35.7201 67.9292Z" fill="#CECDB7"/>
<path fill-rule="evenodd" clip-rule="evenodd" d="M35.9824 69.7045C36.0825 69.529 36.2108 69.3637 36.2777 69.1769C36.6029 68.2696 36.9072 67.355 37.2306 66.4465C37.2672 66.3436 37.3785 66.2671 37.4545 66.1782L37.4612 68.2257L36.7761 69.983L35.9824 69.7045Z" fill="#DBDAC7"/>
<path fill-rule="evenodd" clip-rule="evenodd" d="M36.7764 69.9833L37.4615 68.2261L37.6027 70.3051L36.7764 69.9833Z" fill="#EBE9DC"/>
<path fill-rule="evenodd" clip-rule="evenodd" d="M37.9482 62.3802C37.8379 61.9038 38.0207 61.5264 38.3515 61.2007L38.541 61.3301L37.9482 62.3802Z" fill="#CECDB7"/>
<path fill-rule="evenodd" clip-rule="evenodd" d="M36.1778 53.5342L36.1406 53.5281L36.1035 53.5337L36.1907 53.2192L36.1778 53.5342Z" fill="#4FAA41"/>
</svg>
