<svg width="604" height="245" viewBox="0 0 604 245" fill="none" xmlns="http://www.w3.org/2000/svg">
<path d="M109.98 241.488V70.551L108.108 70.551L89.154 241.488L55.926 241.488L37.206 70.551L35.334 70.551V241.488L-2.75422e-06 241.488V1.96881e-05L56.16 1.70178e-05L72.54 156.546L74.412 156.546L90.792 1.53712e-05L145.782 1.27566e-05V241.488L109.98 241.488ZM264.857 7.09494e-06V133.731C264.857 165.789 263.999 188.955 262.283 203.229C260.567 217.503 256.277 227.916 249.413 234.468C242.549 241.02 231.239 244.296 215.483 244.296C199.727 244.296 188.417 241.02 181.553 234.468C174.845 227.916 170.633 217.62 168.917 203.58C167.201 189.306 166.343 166.023 166.343 133.731V1.1779e-05L203.783 9.99882e-06V150.228C203.783 166.374 203.939 177.372 204.251 183.222C204.719 188.838 205.655 192.465 207.059 194.103C208.619 195.741 211.427 196.56 215.483 196.56C219.695 196.56 222.503 195.741 223.907 194.103C225.467 192.465 226.403 188.838 226.715 183.222C227.183 177.372 227.417 166.374 227.417 150.228V8.8751e-06L264.857 7.09494e-06ZM305.78 241.488V49.491L276.53 49.491V6.53994e-06L372.236 1.98941e-06V49.491L343.22 49.491V241.488L305.78 241.488ZM447.304 241.488V145.314L422.032 145.314V241.488L384.592 241.488V1.4019e-06L422.032 -3.78255e-07V94.419L447.304 94.419V-1.57986e-06L484.744 -3.36002e-06V241.488L447.304 241.488ZM603.746 -9.0182e-06V133.731C603.746 165.789 602.888 188.955 601.172 203.229C599.456 217.503 595.166 227.916 588.302 234.468C581.438 241.02 570.128 244.296 554.372 244.296C538.616 244.296 527.306 241.02 520.442 234.468C513.734 227.916 509.522 217.62 507.806 203.58C506.09 189.306 505.232 166.023 505.232 133.731V-4.33415e-06L542.672 -6.11431e-06V150.228C542.672 166.374 542.828 177.372 543.14 183.222C543.608 188.838 544.544 192.465 545.948 194.103C547.508 195.741 550.316 196.56 554.372 196.56C558.584 196.56 561.392 195.741 562.796 194.103C564.356 192.465 565.292 188.838 565.604 183.222C566.072 177.372 566.306 166.374 566.306 150.228V-7.23804e-06L603.746 -9.0182e-06Z" fill="#121212"/>
</svg>
