<svg width="63" height="63" viewBox="0 0 63 63" fill="none" xmlns="http://www.w3.org/2000/svg">
<path d="M55.5045 14.9299L33.8005 2.32739C32.4317 1.54777 30.6495 1.54777 29.2699 2.32739L7.33409 14.9299C5.92151 15.7425 4.92188 17.2697 4.92188 18.9033V44.0747C4.92188 45.7083 5.94759 47.2361 7.36017 48.0531L13.1557 51.3448C15.9257 52.7092 16.9047 52.7092 18.1652 52.7092C22.2666 52.7092 24.6094 50.229 24.6094 45.9032V21.0527C24.6094 20.7017 24.4268 20.1795 24.0822 20.1795H21.3147C20.9642 20.1795 20.1797 20.7017 20.1797 21.0522V45.9027C20.1797 47.8203 18.4452 49.7285 15.2037 48.1077L9.21523 44.656C9.00654 44.5428 8.85938 44.3149 8.85938 44.0747V18.9033C8.85938 18.6661 9.13254 18.4278 9.3427 18.3063L31.2076 5.72546C31.4119 5.60979 31.7121 5.60979 31.9159 5.72546L53.5141 18.3033C53.7208 18.4278 53.6479 18.6587 53.6479 18.9033V44.0747C53.6479 44.3149 53.738 44.5487 53.5338 44.6644L31.8352 57.2526C31.6491 57.3643 31.4183 57.3643 31.2145 57.2526L25.6494 53.9308C25.4815 53.8333 25.2822 53.7984 25.1213 53.8885C23.5728 54.766 23.2874 54.8827 21.8349 55.3862C21.4776 55.5107 20.9505 55.7268 22.0367 56.3356L29.3201 60.6442C30.0155 61.0459 30.8043 61.2574 31.6073 61.2575C32.4155 61.2575 33.2069 61.0478 33.9043 60.6442L55.504 48.0531C56.9166 47.2302 57.5859 45.7083 57.5859 44.0747V18.9033C57.5859 17.2697 56.9166 15.7464 55.5045 14.9299ZM38.3463 40.0861C32.5749 40.0861 31.3036 38.4938 30.8798 35.6239C30.8306 35.3148 30.5683 34.9452 30.2538 34.9452H27.4331C27.0841 34.9452 26.8035 35.3684 26.8035 35.7159C26.8035 39.3906 28.8013 43.8429 38.3468 43.8429C45.2566 43.8429 49.2183 41.158 49.2183 36.4065C49.2183 31.6952 46.0353 30.4589 39.3341 29.5719C32.5607 28.6767 31.8726 28.2243 31.8726 26.6375C31.8726 25.3293 32.4553 23.5845 37.4707 23.5845C41.9521 23.5845 43.6039 24.5462 44.2836 27.5668C44.3417 27.8508 44.601 28.0545 44.8939 28.0545H47.7259C47.9002 28.0545 48.0665 27.9841 48.1886 27.8596C48.3067 27.7257 48.3692 27.5579 48.3535 27.3778C47.9149 22.1763 44.4593 19.7523 37.4702 19.7523C31.2534 19.7523 27.5448 22.3776 27.5448 26.7783C27.5448 31.5515 31.2347 32.8706 37.2025 33.4607C44.3417 34.1606 44.8969 35.204 44.8969 36.6083C44.8969 39.047 42.9389 40.0861 38.3463 40.0861Z" fill="#83CD29"/>
</svg>
