<svg width="48" height="48" viewBox="0 0 48 48" fill="none" xmlns="http://www.w3.org/2000/svg">
<g clip-path="url(#clip0_1_264)">
<path d="M13.5 20.5499C14.9 14.9499 18.4 12.1499 24 12.1499C32.4 12.1499 33.45 18.4499 37.65 19.4999C40.45 20.1999 42.9 19.1499 45 16.3499C43.6 21.9499 40.1 24.7499 34.5 24.7499C26.1 24.7499 25.05 18.4499 20.85 17.3999C18.05 16.6999 15.6 17.7499 13.5 20.5499ZM3 33.1499C4.4 27.5499 7.9 24.7499 13.5 24.7499C21.9 24.7499 22.95 31.0499 27.15 32.0999C29.95 32.7999 32.4 31.7499 34.5 28.9499C33.1 34.5499 29.6 37.3499 24 37.3499C15.6 37.3499 14.55 31.0499 10.35 29.9999C7.55 29.2999 5.1 30.3499 3 33.1499Z" fill="#44A8B3"/>
</g>
<defs>
<clipPath id="clip0_1_264">
<rect width="48" height="48" fill="white"/>
</clipPath>
</defs>
</svg>
